<svg xmlns="http://www.w3.org/2000/svg" viewBox="0 0 32 32" width="32" height="32">
  <defs>
    <linearGradient id="bgGradient" x1="0%" y1="0%" x2="100%" y2="100%">
      <stop offset="0%" style="stop-color:#191414;stop-opacity:1" />
      <stop offset="100%" style="stop-color:#121212;stop-opacity:1" />
    </linearGradient>
    <linearGradient id="waveGradient" x1="0%" y1="0%" x2="100%" y2="0%">
      <stop offset="0%" style="stop-color:#1DB954;stop-opacity:1" />
      <stop offset="100%" style="stop-color:#26d965;stop-opacity:1" />
    </linearGradient>
  </defs>
  
  <!-- Background circle -->
  <circle cx="16" cy="16" r="15" fill="url(#bgGradient)" stroke="#1DB954" stroke-width="1"/>
  
  <!-- Sound wave bars representing analytics -->
  <rect x="6" y="18" width="2" height="8" fill="url(#waveGradient)" rx="1"/>
  <rect x="9" y="14" width="2" height="12" fill="url(#waveGradient)" rx="1"/>
  <rect x="12" y="10" width="2" height="16" fill="url(#waveGradient)" rx="1"/>
  <rect x="15" y="8" width="2" height="18" fill="url(#waveGradient)" rx="1"/>
  <rect x="18" y="12" width="2" height="14" fill="url(#waveGradient)" rx="1"/>
  <rect x="21" y="16" width="2" height="10" fill="url(#waveGradient)" rx="1"/>
  <rect x="24" y="20" width="2" height="6" fill="url(#waveGradient)" rx="1"/>
  
  <!-- Analytics trend line -->
  <path d="M 6 20 Q 12 16 16 14 Q 20 12 26 18" stroke="#1DB954" stroke-width="1.5" fill="none" opacity="0.7"/>
  
  <!-- Small dots for data points -->
  <circle cx="16" cy="14" r="1" fill="#1DB954"/>
  <circle cx="21" cy="16" r="1" fill="#1DB954"/>
</svg>
